<svg version="1.1" id="Layer_1" xmlns="http://www.w3.org/2000/svg" x="0" y="0" viewBox="0 0 35 35" style="enable-background:new 0 0 35 35" xml:space="preserve"><style>.basketAdd{fill:#429942}</style><circle class="basketAdd" cx="10.9" cy="28" r="1.6"/><path class="basketAdd" d="M15.6 24.1h-8v1.7h8.2c-.1-.6-.2-1.1-.2-1.7zM16.1 20.7c.5-1.6 1.5-3.1 2.8-4.2h-.8v-4.2h1.7v3.5c1.2-.8 2.7-1.4 4.3-1.6l1.3-7.9 1.2-1h2.5V3.8H26l-2.1 1.8-.6 3.3H2.4l2.1 8.6c.5 1.9 2.2 3.2 4.1 3.2h7.5zM13 12.3h1.7v4.2H13v-4.2zm-5.1 0h1.7v4.2H7.9v-4.2z"/><path class="basketAdd" d="M25.1 15.7c-4.5 0-8.1 3.6-8.1 8.1s3.6 8.1 8.1 8.1 8.1-3.6 8.1-8.1-3.6-8.1-8.1-8.1zm4.4 9.3H27c-.3 0-.6.3-.6.6v2.5c0 .7-.6 1.2-1.2 1.2-.7 0-1.2-.6-1.2-1.2v-2.5c0-.3-.3-.6-.6-.6h-2.5c-.7 0-1.2-.6-1.2-1.2 0-.7.6-1.2 1.2-1.2h2.5c.3 0 .6-.3.6-.6v-2.5c0-.7.6-1.2 1.2-1.2.7 0 1.2.6 1.2 1.2V22c0 .3.3.6.6.6h2.5c.7 0 1.2.6 1.2 1.2s-.5 1.2-1.2 1.2z"/></svg>