<svg version="1.1" id="Layer_1" xmlns="http://www.w3.org/2000/svg" x="0" y="0" viewBox="0 0 35 35" style="enable-background:new 0 0 35 35" xml:space="preserve"><style>.basketRemove{fill:#429942}</style><circle class="basketRemove" cx="10.9" cy="28" r="1.6"/><path class="basketRemove" d="M16.1 20.8c.6-1.7 1.6-3.1 2.9-4.2h-.9v-4.2h1.7v3.7c1.3-.9 2.7-1.4 4.3-1.6l1.3-7.8 1.2-1h2.5V3.8H26l-2.1 1.8-.6 3.3H2.4l2.1 8.6c.5 1.9 2.2 3.2 4.1 3.2h7.5zM13 12.3h1.7v4.2H13v-4.2zm-5.1 0h1.7v4.2H7.9v-4.2zM15.7 24.1H7.6v1.7h8.3c-.1-.5-.2-1.1-.2-1.7z"/><path class="basketRemove" d="M25.1 15.7c-4.5 0-8.1 3.6-8.1 8.1s3.6 8.1 8.1 8.1 8.1-3.6 8.1-8.1-3.6-8.1-8.1-8.1zm4.4 9.3h-8.7c-.7 0-1.2-.6-1.2-1.2 0-.7.6-1.2 1.2-1.2h8.7c.7 0 1.2.6 1.2 1.2.1.6-.5 1.2-1.2 1.2z"/></svg>