<svg baseProfile="tiny" xmlns="http://www.w3.org/2000/svg" viewBox="0 0 35 35"><path d="M24 15h-3.88l-1.56 1.56c-.14.14-.3.25-.49.33-.18.07-.37.11-.57.11-.2 0-.39-.04-.58-.12-.18-.08-.35-.19-.49-.33L14.88 15H11c-1.1 0-2 .9-2 2v6h17v-6c0-1.1-.9-2-2-2zM11 26h6v1h-2.5c-.28 0-.5.22-.5.5s.22.5.5.5h6c.28 0 .5-.22.5-.5s-.22-.5-.5-.5H18v-1h6c1.1 0 2-.9 2-2H9c0 1.1.9 2 2 2z"/><path d="M13.15 11.85l.89.89 3.11 3.11c.05.05.1.08.16.11a.5.5 0 00.38 0c.06-.03.12-.06.16-.11l3.11-3.11.89-.89c.19-.18.2-.51 0-.71a.501.501 0 00-.7 0l-1.57 1.57L18 14.29V7.5c0-.28-.22-.5-.5-.5s-.5.22-.5.5v6.79l-1.57-1.57-1.57-1.57c-.2-.19-.5-.2-.71 0-.2.2-.19.52 0 .7z"/></svg>