<svg baseProfile="tiny" xmlns="http://www.w3.org/2000/svg" viewBox="0 0 35 35"><path d="M12.81 16.5h-4.5l-.63 6h4.74zM26.69 16.5h-4.32l.38 6h4.57zM22.19 29.5l-.38-6h-8.45l-.39 6zM18.74 20.96c-.29.34-.71.54-1.15.54-.44 0-.87-.2-1.15-.54-.41-.49-1.55-1.89-2.68-3.58l-.33 5.12h8.32l-.32-5.11a47.344 47.344 0 01-2.69 3.57zM12.36 23.5H7.58L7 28.95c-.02.14.03.28.13.39.09.11.23.17.37.17h4.47l.39-6.01zM24.18 11.09c0 1.24-.69 2.85-1.58 4.41h3.99L26 9.95a.508.508 0 00-.5-.45h-1.52c.12.51.2 1.04.2 1.59zM22.81 23.5l.38 6h4.31c.14 0 .28-.06.37-.17a.56.56 0 00.13-.39l-.57-5.45h-4.62zM12.58 15.5c-.89-1.56-1.58-3.17-1.58-4.41 0-.55.07-1.08.2-1.59H9.5a.5.5 0 00-.5.45l-.58 5.55h4.16z"/><path d="M17.59 5.5A5.6 5.6 0 0012 11.09c0 2.96 4.99 8.97 5.21 9.23.1.11.24.18.38.18.15 0 .29-.07.38-.18.21-.25 5.2-6.27 5.2-9.23.01-3.08-2.5-5.59-5.58-5.59zm0 8c-1.33 0-2.41-1.08-2.41-2.41s1.08-2.41 2.41-2.41S20 9.76 20 11.09s-1.08 2.41-2.41 2.41z"/></svg>