<svg baseProfile="tiny" xmlns="http://www.w3.org/2000/svg" viewBox="0 0 35 35"><path d="M26.85 11.15l-1.79-1.79-1.07-1.07-.28-.29-1-1-.85-.85c-.1-.1-.23-.15-.36-.15h-8c-.28 0-.5.22-.5.5V14c.05 0 .1-.01.15-.01 3.13 0 5.67 2.54 5.67 5.67 0 1.08-.64 2.71-1.44 4.34h9.12c.28 0 .5-.22.5-.5v-12a.47.47 0 00-.15-.35zm-5.35.35v-5l5 5h-5z"/><path d="M13.15 14.99c-2.57 0-4.67 2.09-4.67 4.67 0 2.48 4.24 8.93 4.43 9.21.05.08.15.13.24.13s.19-.05.24-.13c.18-.27 4.43-6.73 4.43-9.21 0-2.57-2.09-4.67-4.67-4.67zm0 6.71c-1.13 0-2.04-.92-2.04-2.04 0-1.13.92-2.04 2.04-2.04s2.04.92 2.04 2.04a2.03 2.03 0 01-2.04 2.04z"/></svg>