<svg baseProfile="tiny" xmlns="http://www.w3.org/2000/svg" viewBox="0 0 35 35"><path d="M8.65 25.9c.37.38 1.01.4 1.41 0l4-4a.996.996 0 10-1.41-1.41l-2.29 2.29V9.19c0-.55-.45-1-1-1s-1 .45-1 1v13.59l-2.29-2.29a.996.996 0 10-1.41 1.41l3.99 4zM20.36 9h-3c-.55 0-1 .45-1 1s.45 1 1 1h3c.55 0 1-.45 1-1s-.45-1-1-1zM26.36 19h-9c-.55 0-1 .45-1 1s.45 1 1 1h9c.55 0 1-.45 1-1s-.45-1-1-1zM23.36 14h-6c-.55 0-1 .45-1 1s.45 1 1 1h6c.55 0 1-.45 1-1s-.45-1-1-1zM29.36 24h-12c-.55 0-1 .45-1 1s.45 1 1 1h12c.55 0 1-.45 1-1s-.45-1-1-1z"/></svg>