<svg version="1.1" id="Layer_1" xmlns="http://www.w3.org/2000/svg" x="0" y="0" viewBox="0 0 35 35" xml:space="preserve"><style>.st0{fill:#fff}</style><path class="st0" d="M28.1 15.3c.7-.9 1.2-2.3 1.2-3.3V9.5c0-2.6-5.2-4-10-4s-10 1.4-10 4V12c0 1 .5 2.4 1.2 3.3h.4c4.3 0 7.7 3.4 7.7 7.7 0 1.6-.5 3-1.3 4.2v.8c0 .8.7 1.5 1.5 1.5h1c.8 0 1.5-.7 1.5-1.5v-3c.8.4 1.6.5 2.5.5 3.3 0 6-2.7 6-6 0-1.6-.7-3-1.7-4.2zm-8.9-2.8c-5.3 0-9-1.6-9-3s3.7-3 9-3 9 1.6 9 3-3.6 3-9 3zm4.6 12c-.9 0-1.7-.2-2.5-.7v-1.6l6.1-6.1c.9.9 1.4 2.1 1.4 3.4 0 2.8-2.3 5-5 5z"/><path class="st0" d="M10.8 16.5c-3.6 0-6.5 2.9-6.5 6.5s2.9 6.5 6.5 6.5 6.5-2.9 6.5-6.5-2.9-6.5-6.5-6.5zm2.7 7h-2.2v2.2c0 .3-.2.5-.5.5s-.5-.2-.5-.5v-2.2H8.1c-.3 0-.5-.2-.5-.5s.2-.5.5-.5h2.2v-2.2c0-.3.2-.5.5-.5s.5.2.5.5v2.2h2.2c.3 0 .5.2.5.5s-.2.5-.5.5z"/></svg>