<svg xmlns="http://www.w3.org/2000/svg" viewBox="0 0 35 35"><path d="M28.1 15.3c.7-.9 1.2-2.3 1.2-3.3V9.5c0-2.6-5.2-4-10-4s-10 1.4-10 4V12c0 1.2.7 2.9 1.6 3.8l1.9 1.9 1.1-1.1c.7-.7 1.5-1 2.5-1 .9 0 1.8.4 2.5 1 1.4 1.4 1.4 3.6 0 4.9L17.3 23l1.5 1.5c1.4 1.4 1.4 3.6 0 4.9l-.1.1h1.1c.8 0 1.5-.7 1.5-1.5v-3c.8.4 1.6.5 2.5.5 3.3 0 6-2.7 6-6 0-1.6-.7-3-1.7-4.2zm-8.9-2.8c-5.3 0-9-1.6-9-3s3.7-3 9-3 9 1.6 9 3-3.6 3-9 3zm4.6 12c-.9 0-1.7-.2-2.5-.7v-1.6l6.1-6.1c.9.9 1.4 2.1 1.4 3.4 0 2.8-2.3 5-5 5z"/><path d="M15.9 27.3l-3.6-3.6-3.6 3.6c-.2.2-.5.2-.7 0-.2-.2-.2-.5 0-.7l3.6-3.6L8 19.4c-.2-.2-.2-.5 0-.7.2-.2.5-.2.7 0l3.6 3.6 3.6-3.6c.2-.2.5-.2.7 0 .2.2.2.5 0 .7L13.1 23l3.6 3.6c.2.2.2.5 0 .7-.3.2-.6.2-.8 0z"/></svg>